<svg width="1591" height="1618" xmlns="http://www.w3.org/2000/svg" xmlns:xlink="http://www.w3.org/1999/xlink" xml:space="preserve" overflow="hidden"><g transform="translate(-719 -187)"><g><path d="M724.5 554.168C724.5 527.289 746.289 505.5 773.168 505.5L1390.83 505.5C1417.71 505.5 1439.5 527.289 1439.5 554.168L1439.5 748.832C1439.5 775.711 1417.71 797.5 1390.83 797.5L773.168 797.5C746.289 797.5 724.5 775.711 724.5 748.832Z" stroke="#595959" stroke-width="3.4375" stroke-linecap="butt" stroke-linejoin="round" stroke-miterlimit="10" stroke-opacity="1" fill="#EEEEEE" fill-rule="evenodd" fill-opacity="1"/><text fill="#000000" fill-opacity="1" font-family="Arial,Arial_MSFontService,sans-serif" font-style="normal" font-variant="normal" font-weight="700" font-stretch="normal" font-size="55" text-anchor="start" direction="ltr" writing-mode="lr-tb" unicode-bidi="normal" text-decoration="none" transform="matrix(1 0 0 1 881.029 607)">Vision Encoder </text><text fill="#595959" fill-opacity="1" font-family="Arial,Arial_MSFontService,sans-serif" font-style="normal" font-variant="normal" font-weight="400" font-stretch="normal" font-size="46" text-anchor="start" direction="ltr" writing-mode="lr-tb" unicode-bidi="normal" text-decoration="none" transform="matrix(1 0 0 1 983.856 673)">ViT 670M</text><text fill="#595959" fill-opacity="1" font-family="Arial,Arial_MSFontService,sans-serif" font-style="normal" font-variant="normal" font-weight="400" font-stretch="normal" font-size="46" text-anchor="start" direction="ltr" writing-mode="lr-tb" unicode-bidi="normal" text-decoration="none" transform="matrix(1 0 0 1 899.362 737)">(up to 16k tokens)</text><path d="M1084.22 797.5 1084.22 927.241 1080.78 927.241 1080.78 797.5ZM1096.25 922.657 1082.5 950.157 1068.75 922.658Z" fill="#595959" fill-rule="nonzero" fill-opacity="1"/><path d="M1084.22 388.5 1084.22 483.054 1080.78 483.054 1080.78 388.5ZM1096.25 478.47 1082.5 505.97 1068.75 478.47Z" fill="#595959" fill-rule="nonzero" fill-opacity="1"/><path d="M2017.22 322.5 2017.22 530.951 2013.78 530.951 2013.78 322.5ZM2029.25 526.368 2015.5 553.868 2001.75 526.368Z" fill="#595959" fill-rule="nonzero" fill-opacity="1"/><text fill="#000000" fill-opacity="1" font-family="Arial,Arial_MSFontService,sans-serif" font-style="normal" font-variant="normal" font-weight="700" font-stretch="normal" font-size="55" text-anchor="start" direction="ltr" writing-mode="lr-tb" unicode-bidi="normal" text-decoration="none" transform="matrix(1 0 0 1 1002.2 279)">Image</text><text fill="#595959" fill-opacity="1" font-family="Arial,Arial_MSFontService,sans-serif" font-style="normal" font-variant="normal" font-weight="400" font-stretch="normal" font-size="46" text-anchor="start" direction="ltr" writing-mode="lr-tb" unicode-bidi="normal" text-decoration="none" transform="matrix(1 0 0 1 895.065 345)">(up to 3584</text><text fill="#595959" fill-opacity="1" font-family="Arial,Arial_MSFontService,sans-serif" font-style="normal" font-variant="normal" font-weight="400" font-stretch="normal" font-size="46" text-anchor="start" direction="ltr" writing-mode="lr-tb" unicode-bidi="normal" text-decoration="none" transform="matrix(1 0 0 1 1124.8 345)">×</text><text fill="#595959" fill-opacity="1" font-family="Arial,Arial_MSFontService,sans-serif" font-style="normal" font-variant="normal" font-weight="400" font-stretch="normal" font-size="46" text-anchor="start" direction="ltr" writing-mode="lr-tb" unicode-bidi="normal" text-decoration="none" transform="matrix(1 0 0 1 1151.73 345)">3584)</text><rect x="798.5" y="1252.5" width="1427" height="106" stroke="#595959" stroke-width="3.4375" stroke-linecap="butt" stroke-linejoin="round" stroke-miterlimit="10" stroke-opacity="1" fill="#FFFFFF" fill-opacity="1"/><text fill="#000000" fill-opacity="1" font-family="Arial,Arial_MSFontService,sans-serif" font-style="normal" font-variant="normal" font-weight="400" font-stretch="normal" font-size="46" text-anchor="start" direction="ltr" writing-mode="lr-tb" unicode-bidi="normal" text-decoration="none" transform="matrix(1 0 0 1 1258.89 1323)">Replace &lt;image&gt; tokens</text><path d="M1513.22 1358.5 1513.22 1445.91 1509.78 1445.91 1509.78 1358.5ZM1525.25 1441.32 1511.5 1468.82 1497.75 1441.32Z" fill="#595959" fill-rule="nonzero" fill-opacity="1"/><text fill="#000000" fill-opacity="1" font-family="Arial,Arial_MSFontService,sans-serif" font-style="normal" font-variant="normal" font-weight="700" font-stretch="normal" font-size="55" text-anchor="start" direction="ltr" writing-mode="lr-tb" unicode-bidi="normal" text-decoration="none" transform="matrix(1 0 0 1 1958.38 279)">Text</text><path d="M1725.5 593.001C1725.5 571.737 1742.74 554.5 1764 554.5L2266 554.5C2287.26 554.5 2304.5 571.737 2304.5 593.001L2304.5 746.999C2304.5 768.263 2287.26 785.5 2266 785.5L1764 785.5C1742.74 785.5 1725.5 768.263 1725.5 746.999Z" stroke="#595959" stroke-width="3.4375" stroke-linecap="butt" stroke-linejoin="round" stroke-miterlimit="10" stroke-opacity="1" fill="#EEEEEE" fill-rule="evenodd" fill-opacity="1"/><text fill="#000000" fill-opacity="1" font-family="Arial,Arial_MSFontService,sans-serif" font-style="normal" font-variant="normal" font-weight="700" font-stretch="normal" font-size="55" text-anchor="start" direction="ltr" writing-mode="lr-tb" unicode-bidi="normal" text-decoration="none" transform="matrix(1 0 0 1 1864.7 657)">Embedding</text><text fill="#595959" fill-opacity="1" font-family="Arial,Arial_MSFontService,sans-serif" font-style="normal" font-variant="normal" font-weight="400" font-stretch="normal" font-size="46" text-anchor="start" direction="ltr" writing-mode="lr-tb" unicode-bidi="normal" text-decoration="none" transform="matrix(1 0 0 1 1888.19 723)">(512 tokens)</text><path d="M1.71875-0.00241284 2.33618 439.817-1.10131 439.822-1.71875 0.00241284ZM14.361 435.217 0.649606 462.736-13.139 435.256Z" fill="#595959" fill-rule="nonzero" fill-opacity="1" transform="matrix(-1 0 0 1 2015.15 785.5)"/><path d="M969.5 1524.67C969.5 1494.2 994.199 1469.5 1024.67 1469.5L1998.33 1469.5C2028.8 1469.5 2053.5 1494.2 2053.5 1524.67L2053.5 1745.33C2053.5 1775.79 2028.8 1800.49 1998.33 1800.49L1024.67 1800.49C994.199 1800.49 969.5 1775.79 969.5 1745.33Z" stroke="#595959" stroke-width="3.4375" stroke-linecap="butt" stroke-linejoin="round" stroke-miterlimit="10" stroke-opacity="1" fill="#EEEEEE" fill-rule="evenodd" fill-opacity="1"/><text fill="#000000" fill-opacity="1" font-family="Arial,Arial_MSFontService,sans-serif" font-style="normal" font-variant="normal" font-weight="700" font-stretch="normal" font-size="55" text-anchor="start" direction="ltr" writing-mode="lr-tb" unicode-bidi="normal" text-decoration="none" transform="matrix(1 0 0 1 1337.37 1622)">Text Decoder</text><text fill="#595959" fill-opacity="1" font-family="Arial,Arial_MSFontService,sans-serif" font-style="normal" font-variant="normal" font-weight="400" font-stretch="normal" font-size="46" text-anchor="start" direction="ltr" writing-mode="lr-tb" unicode-bidi="normal" text-decoration="none" transform="matrix(1 0 0 1 1226.52 1688)">(Qwen2.5 LLM) 7B/32B/72B</text><path d="M824.5 978.834C824.5 963.185 837.186 950.5 852.834 950.5L1311.17 950.5C1326.81 950.5 1339.5 963.185 1339.5 978.834L1339.5 1092.17C1339.5 1107.81 1326.81 1120.5 1311.17 1120.5L852.834 1120.5C837.186 1120.5 824.5 1107.81 824.5 1092.17Z" stroke="#595959" stroke-width="3.4375" stroke-linecap="butt" stroke-linejoin="round" stroke-miterlimit="10" stroke-opacity="1" fill="#EEEEEE" fill-rule="evenodd" fill-opacity="1"/><text fill="#000000" fill-opacity="1" font-family="Arial,Arial_MSFontService,sans-serif" font-style="normal" font-variant="normal" font-weight="700" font-stretch="normal" font-size="55" text-anchor="start" direction="ltr" writing-mode="lr-tb" unicode-bidi="normal" text-decoration="none" transform="matrix(1 0 0 1 960.962 1022)">Projector</text><text fill="#595959" fill-opacity="1" font-family="Arial,Arial_MSFontService,sans-serif" font-style="normal" font-variant="normal" font-weight="400" font-stretch="normal" font-size="46" text-anchor="start" direction="ltr" writing-mode="lr-tb" unicode-bidi="normal" text-decoration="none" transform="matrix(1 0 0 1 903.945 1088)">Vision → text dim</text><path d="M1084.22 1120.49 1084.76 1229.34 1081.32 1229.35 1080.78 1120.51ZM1096.76 1224.69 1083.15 1252.26 1069.26 1224.83Z" fill="#595959" fill-rule="nonzero" fill-opacity="1"/></g></g></svg>
